<?xml version="1.0" standalone="yes"?>

<svg version="1.1" viewBox="0.0 0.0 299.3989501312336 248.58267716535434" fill="none" stroke="none" stroke-linecap="square" stroke-miterlimit="10" xmlns="http://www.w3.org/2000/svg" xmlns:xlink="http://www.w3.org/1999/xlink"><clipPath id="p.0"><path d="m0 0l299.39896 0l0 248.58267l-299.39896 0l0 -248.58267z" clip-rule="nonzero"></path></clipPath><g clip-path="url(#p.0)"><path fill="#000000" fill-opacity="0.0" d="m0 0l299.39896 0l0 248.58267l-299.39896 0z" fill-rule="evenodd"></path><path fill="#000000" fill-opacity="0.0" d="m22.48819 33.829395l0 0c0 -10.75868 8.629974 -19.480314 19.275589 -19.480314l0 0c5.1122055 0 10.015026 2.0523853 13.629902 5.705652c3.6148758 3.6532688 5.645691 8.608162 5.645691 13.774662l0 0c0 10.758682 -8.629978 19.480316 -19.275593 19.480316l0 0c-10.645615 0 -19.275589 -8.721634 -19.275589 -19.480316z" fill-rule="evenodd"></path><path stroke="#000000" stroke-width="1.0" stroke-linejoin="round" stroke-linecap="butt" d="m22.48819 33.829395l0 0c0 -10.75868 8.629974 -19.480314 19.275589 -19.480314l0 0c5.1122055 0 10.015026 2.0523853 13.629902 5.705652c3.6148758 3.6532688 5.645691 8.608162 5.645691 13.774662l0 0c0 10.758682 -8.629978 19.480316 -19.275593 19.480316l0 0c-10.645615 0 -19.275589 -8.721634 -19.275589 -19.480316z" fill-rule="evenodd"></path><path fill="#000000" fill-opacity="0.0" d="m31.853018 52.82677l0 0c0 -10.758678 8.629976 -19.480312 19.27559 -19.480312l0 0c5.1122055 0 10.015026 2.0523834 13.629898 5.7056503c3.6148758 3.653267 5.645691 8.608162 5.645691 13.774662l0 0c0 10.758682 -8.629974 19.480312 -19.275589 19.480312l0 0c-10.645615 0 -19.27559 -8.72163 -19.27559 -19.480312z" fill-rule="evenodd"></path><path stroke="#000000" stroke-width="1.0" stroke-linejoin="round" stroke-linecap="butt" d="m31.853018 52.82677l0 0c0 -10.758678 8.629976 -19.480312 19.27559 -19.480312l0 0c5.1122055 0 10.015026 2.0523834 13.629898 5.7056503c3.6148758 3.653267 5.645691 8.608162 5.645691 13.774662l0 0c0 10.758682 -8.629974 19.480312 -19.275589 19.480312l0 0c-10.645615 0 -19.27559 -8.72163 -19.27559 -19.480312z" fill-rule="evenodd"></path><path fill="#000000" fill-opacity="0.0" d="m11.440945 52.82677l0 0c0 -10.758678 8.629976 -19.480312 19.27559 -19.480312l0 0c5.1122036 0 10.015028 2.0523834 13.6299 5.7056503c3.6148758 3.653267 5.645691 8.608162 5.645691 13.774662l0 0c0 10.758682 -8.629978 19.480312 -19.27559 19.480312l0 0c-10.645615 0 -19.27559 -8.72163 -19.27559 -19.480312z" fill-rule="evenodd"></path><path stroke="#000000" stroke-width="1.0" stroke-linejoin="round" stroke-linecap="butt" d="m11.440945 52.82677l0 0c0 -10.758678 8.629976 -19.480312 19.27559 -19.480312l0 0c5.1122036 0 10.015028 2.0523834 13.6299 5.7056503c3.6148758 3.653267 5.645691 8.608162 5.645691 13.774662l0 0c0 10.758682 -8.629978 19.480312 -19.27559 19.480312l0 0c-10.645615 0 -19.27559 -8.72163 -19.27559 -19.480312z" fill-rule="evenodd"></path><path fill="#000000" fill-opacity="0.0" d="m27.839895 8.031496l123.37008 0l0 14.393702l-123.37008 0z" fill-rule="evenodd"></path><path fill="#000000" d="m37.433643 24.166445l0 -6.453123l0.71875 0l0 0.609375q0.25 -0.359375 0.5625 -0.53125q0.328125 -0.171875 0.796875 -0.171875q0.59375 0 1.046875 0.3125q0.453125 0.296875 0.6875 0.859375q0.234375 0.5625 0.234375 1.21875q0 0.71875 -0.265625 1.296875q-0.25 0.578125 -0.734375 0.890625q-0.484375 0.296875 -1.03125 0.296875q-0.390625 0 -0.703125 -0.171875q-0.3125 -0.171875 -0.515625 -0.421875l0 2.265623l-0.796875 0zm0.71875 -4.093748q0 0.90625 0.359375 1.34375q0.375 0.421875 0.890625 0.421875q0.515625 0 0.890625 -0.4375q0.390625 -0.453125 0.390625 -1.390625q0 -0.890625 -0.375 -1.328125q-0.359375 -0.453125 -0.875 -0.453125q-0.5 0 -0.890625 0.484375q-0.390625 0.46875 -0.390625 1.359375z" fill-rule="nonzero"></path><path fill="#000000" d="m44.262135 25.885195l-0.53125 0l0 -3.359375q-0.1875 0.1875 -0.5 0.375q-0.296875 0.171875 -0.546875 0.265625l0 -0.515625q0.4375 -0.203125 0.765625 -0.5q0.34375 -0.296875 0.46875 -0.578125l0.34375 0l0 4.3125z" fill-rule="nonzero"></path><path fill="#000000" fill-opacity="0.0" d="m42.83202 41.330708l123.37009 0l0 14.393703l-123.37009 0z" fill-rule="evenodd"></path><path fill="#000000" d="m52.42577 57.465656l0 -6.453121l0.71875 0l0 0.609375q0.25 -0.359375 0.5625 -0.53125q0.328125 -0.171875 0.796875 -0.171875q0.59375 0 1.046875 0.3125q0.453125 0.296875 0.6875 0.859375q0.234375 0.5625 0.234375 1.21875q0 0.71875 -0.265625 1.296875q-0.25 0.578125 -0.734375 0.890625q-0.484375 0.296875 -1.03125 0.296875q-0.390625 0 -0.703125 -0.171875q-0.3125 -0.171875 -0.515625 -0.421875l0 2.2656212l-0.796875 0zm0.71875 -4.093746q0 0.90625 0.359375 1.34375q0.375 0.421875 0.890625 0.421875q0.515625 0 0.890625 -0.4375q0.390625 -0.453125 0.390625 -1.390625q0 -0.890625 -0.375 -1.328125q-0.359375 -0.453125 -0.875 -0.453125q-0.5 0 -0.890625 0.484375q-0.390625 0.46875 -0.390625 1.359375z" fill-rule="nonzero"></path><path fill="#000000" d="m60.03551 58.684406l0 0.5l-2.828125 0q-0.015625 -0.1875 0.0625 -0.359375q0.109375 -0.296875 0.34375 -0.578125q0.234375 -0.28125 0.6875 -0.65625q0.703125 -0.5625 0.9375 -0.890625q0.25 -0.34375 0.25 -0.640625q0 -0.328125 -0.21875 -0.53125q-0.21875 -0.21875 -0.578125 -0.21875q-0.390625 0 -0.625 0.234375q-0.21875 0.21875 -0.21875 0.625l-0.546875 -0.0625q0.0625 -0.59375 0.421875 -0.90625q0.359375 -0.328125 0.96875 -0.328125q0.625 0 0.984375 0.34375q0.359375 0.34375 0.359375 0.84375q0 0.265625 -0.109375 0.515625q-0.109375 0.25 -0.359375 0.53125q-0.234375 0.265625 -0.796875 0.75q-0.484375 0.390625 -0.625 0.53125q-0.125 0.140625 -0.203125 0.296875l2.09375 0z" fill-rule="nonzero"></path><path fill="#000000" fill-opacity="0.0" d="m11.440945 41.330708l123.37007 0l0 14.393703l-123.37007 0z" fill-rule="evenodd"></path><path fill="#000000" d="m21.034695 57.465656l0 -6.453121l0.71875 0l0 0.609375q0.25 -0.359375 0.5625 -0.53125q0.328125 -0.171875 0.796875 -0.171875q0.59375 0 1.046875 0.3125q0.453125 0.296875 0.6875 0.859375q0.234375 0.5625 0.234375 1.21875q0 0.71875 -0.265625 1.296875q-0.25 0.578125 -0.734375 0.890625q-0.484375 0.296875 -1.03125 0.296875q-0.390625 0 -0.703125 -0.171875q-0.3125 -0.171875 -0.515625 -0.421875l0 2.2656212l-0.796875 0zm0.71875 -4.093746q0 0.90625 0.359375 1.34375q0.375 0.421875 0.890625 0.421875q0.515625 0 0.890625 -0.4375q0.390625 -0.453125 0.390625 -1.390625q0 -0.890625 -0.375 -1.328125q-0.359375 -0.453125 -0.875 -0.453125q-0.5 0 -0.890625 0.484375q-0.390625 0.46875 -0.390625 1.359375z" fill-rule="nonzero"></path><path fill="#000000" d="m25.87881 58.04378l0.53125 -0.0625q0.09375 0.453125 0.3125 0.65625q0.21875 0.1875 0.53125 0.1875q0.375 0 0.625 -0.25q0.25 -0.265625 0.25 -0.640625q0 -0.375 -0.234375 -0.609375q-0.234375 -0.234375 -0.59375 -0.234375q-0.15625 0 -0.375 0.0625l0.046875 -0.46875q0.0625 0.015625 0.09375 0.015625q0.328125 0 0.59375 -0.171875q0.28125 -0.1875 0.28125 -0.546875q0 -0.296875 -0.203125 -0.484375q-0.1875 -0.1875 -0.5 -0.1875q-0.3125 0 -0.515625 0.1875q-0.203125 0.1875 -0.265625 0.578125l-0.515625 -0.09375q0.09375 -0.53125 0.4375 -0.8125q0.34375 -0.296875 0.84375 -0.296875q0.359375 0 0.65625 0.15625q0.296875 0.140625 0.453125 0.40625q0.15625 0.265625 0.15625 0.546875q0 0.28125 -0.15625 0.515625q-0.140625 0.21875 -0.4375 0.359375q0.375 0.09375 0.578125 0.375q0.21875 0.265625 0.21875 0.6875q0 0.5625 -0.40625 0.953125q-0.40625 0.390625 -1.03125 0.390625q-0.578125 0 -0.953125 -0.328125q-0.359375 -0.34375 -0.421875 -0.890625z" fill-rule="nonzero"></path><path fill="#000000" fill-opacity="0.0" d="m15.419948 24.681103l123.37008 0l0 14.3937l-123.37008 0z" fill-rule="evenodd"></path><path fill="#000000" d="m27.779322 39.0348l-0.796875 0l0 -5.046875q-0.28125 0.28125 -0.75 0.5625q-0.46875 0.265625 -0.828125 0.390625l0 -0.765625q0.65625 -0.296875 1.15625 -0.734375q0.5 -0.453125 0.703125 -0.875l0.515625 0l0 6.46875z" fill-rule="nonzero"></path><path fill="#000000" fill-opacity="0.0" d="m40.90551 24.67979l123.37008 0l0 14.3937l-123.37008 0z" fill-rule="evenodd"></path><path fill="#000000" d="m54.43676 38.267864l0 0.765625l-4.265625 0q0 -0.28125 0.09375 -0.546875q0.171875 -0.4375 0.53125 -0.859375q0.359375 -0.421875 1.03125 -0.96875q1.046875 -0.875 1.40625 -1.375q0.375 -0.5 0.375 -0.953125q0 -0.46875 -0.34375 -0.78125q-0.328125 -0.328125 -0.859375 -0.328125q-0.578125 0 -0.921875 0.34375q-0.34375 0.34375 -0.34375 0.953125l-0.8125 -0.09375q0.078125 -0.90625 0.625 -1.375q0.546875 -0.484375 1.46875 -0.484375q0.921875 0 1.453125 0.515625q0.546875 0.515625 0.546875 1.265625q0 0.390625 -0.15625 0.765625q-0.15625 0.375 -0.53125 0.796875q-0.359375 0.40625 -1.203125 1.125q-0.71875 0.59375 -0.921875 0.8125q-0.203125 0.21875 -0.328125 0.421875l3.15625 0z" fill-rule="nonzero"></path><path fill="#000000" fill-opacity="0.0" d="m29.125984 45.62992l123.37008 0l0 14.3937l-123.37008 0z" fill-rule="evenodd"></path><path fill="#000000" d="m38.500984 58.280495l0.796875 -0.109375q0.140625 0.671875 0.453125 0.96875q0.328125 0.296875 0.8125 0.296875q0.546875 0 0.921875 -0.375q0.390625 -0.390625 0.390625 -0.96875q0 -0.546875 -0.359375 -0.890625q-0.34375 -0.359375 -0.890625 -0.359375q-0.234375 0 -0.5625 0.09375l0.09375 -0.703125q0.078125 0.015625 0.125 0.015625q0.5 0 0.90625 -0.265625q0.40625 -0.265625 0.40625 -0.8125q0 -0.4375 -0.296875 -0.71875q-0.296875 -0.28125 -0.765625 -0.28125q-0.453125 0 -0.765625 0.296875q-0.296875 0.28125 -0.390625 0.859375l-0.796875 -0.140625q0.15625 -0.796875 0.65625 -1.234375q0.515625 -0.4375 1.28125 -0.4375q0.53125 0 0.96875 0.234375q0.453125 0.21875 0.6875 0.609375q0.234375 0.390625 0.234375 0.828125q0 0.421875 -0.234375 0.765625q-0.21875 0.34375 -0.65625 0.546875q0.578125 0.125 0.890625 0.546875q0.3125 0.40625 0.3125 1.03125q0 0.84375 -0.625 1.4375q-0.609375 0.578125 -1.546875 0.578125q-0.84375 0 -1.40625 -0.5q-0.5625 -0.5 -0.640625 -1.3125z" fill-rule="nonzero"></path><path fill="#000000" fill-opacity="0.0" d="m29.125984 31.236221l123.37008 0l0 14.3937l-123.37008 0z" fill-rule="evenodd"></path><path fill="#000000" d="m41.032234 45.58992l0 -1.546875l-2.796875 0l0 -0.71875l2.9375 -4.171875l0.65625 0l0 4.171875l0.875 0l0 0.71875l-0.875 0l0 1.546875l-0.796875 0zm0 -2.265625l0 -2.90625l-2.015625 2.90625l2.015625 0z" fill-rule="nonzero"></path></g></svg>

